<svg xmlns="http://www.w3.org/2000/svg" xmlns:xlink="http://www.w3.org/1999/xlink" version="1.1" width="256" height="256" viewBox="0 0 256 256" xml:space="preserve">

<defs>
</defs>
<g style="stroke: none; stroke-width: 0; stroke-dasharray: none; stroke-linecap: butt; stroke-linejoin: miter; stroke-miterlimit: 10; fill: none; fill-rule: nonzero; opacity: 1;" transform="translate(1.4065934065934016 1.4065934065934016) scale(2.81 2.81)" >
	<path d="M 71.794 60.125 c -0.425 0 -0.979 -0.151 -1.639 -0.66 l -11.862 -8.671 V 39.235 l 11.884 -8.686 c 1.024 -0.838 1.822 -0.747 2.303 -0.52 c 0.48 0.229 1.054 0.796 1.054 2.201 v 25.568 c 0 1.103 -0.345 1.831 -1.023 2.165 C 72.346 60.045 72.104 60.125 71.794 60.125 z M 60.293 49.778 l 11.063 8.087 c 0.063 0.049 0.12 0.089 0.171 0.122 c 0.004 -0.055 0.006 -0.117 0.006 -0.188 V 32.23 c 0 -0.075 -0.002 -0.141 -0.007 -0.197 c -0.038 0.028 -0.081 0.061 -0.128 0.099 L 60.293 40.25 V 49.778 z" style="stroke: none; stroke-width: 1; stroke-dasharray: none; stroke-linecap: butt; stroke-linejoin: miter; stroke-miterlimit: 10; fill: rgb(0,0,0); fill-rule: nonzero; opacity: 1;" transform=" matrix(1 0 0 1 0 0) " stroke-linecap="round" />
	<path d="M 25.275 60.119 c -4.838 0 -8.788 -3.925 -8.809 -8.769 l 0 -19.069 c 0.03 -1.319 1.088 -2.376 2.408 -2.408 l 27.823 0 c 0.013 0 0.025 0 0.038 0 c 4.839 0 8.789 3.925 8.81 8.769 v 19.064 c -0.031 1.341 -1.123 2.413 -2.433 2.413 H 25.314 C 25.301 60.119 25.288 60.119 25.275 60.119 z M 18.467 32.319 v 19.027 c 0.016 3.738 3.07 6.772 6.813 6.772 c 0.01 0 0.02 0 0.03 0 h 27.804 c 0.233 0 0.427 -0.196 0.433 -0.437 V 38.646 c -0.016 -3.739 -3.07 -6.773 -6.813 -6.773 c -0.01 0 -0.02 0 -0.03 0 H 18.899 C 18.667 31.879 18.477 32.066 18.467 32.319 z" style="stroke: none; stroke-width: 1; stroke-dasharray: none; stroke-linecap: butt; stroke-linejoin: miter; stroke-miterlimit: 10; fill: rgb(0,0,0); fill-rule: nonzero; opacity: 1;" transform=" matrix(1 0 0 1 0 0) " stroke-linecap="round" />
	<path d="M 45 90 C 20.187 90 0 69.813 0 45 C 0 20.187 20.187 0 45 0 c 24.813 0 45 20.187 45 45 C 90 69.813 69.813 90 45 90 z M 45 2 C 21.29 2 2 21.29 2 45 c 0 23.71 19.29 43 43 43 c 23.71 0 43 -19.29 43 -43 C 88 21.29 68.71 2 45 2 z" style="stroke: none; stroke-width: 1; stroke-dasharray: none; stroke-linecap: butt; stroke-linejoin: miter; stroke-miterlimit: 10; fill: rgb(0,0,0); fill-rule: nonzero; opacity: 1;" transform=" matrix(1 0 0 1 0 0) " stroke-linecap="round" />
</g>
</svg>